<svg width="60" height="36" viewBox="0 0 60 36" fill="none" xmlns="http://www.w3.org/2000/svg">
<path d="M13.504 35.528C12.16 35.528 10.784 35.416 9.37601 35.192C8.00001 35 6.67201 34.712 5.39201 34.328C4.14401 33.944 3.02401 33.464 2.03201 32.888C1.32801 32.504 0.832006 32.008 0.544006 31.4C0.256006 30.76 0.144006 30.12 0.208006 29.48C0.304006 28.84 0.544006 28.28 0.928006 27.8C1.34401 27.288 1.85601 26.968 2.46401 26.84C3.10401 26.68 3.80801 26.792 4.57601 27.176C5.88801 27.912 7.31201 28.456 8.84801 28.808C10.416 29.16 11.968 29.336 13.504 29.336C15.84 29.336 17.504 28.984 18.496 28.28C19.488 27.544 19.984 26.632 19.984 25.544C19.984 24.616 19.632 23.88 18.928 23.336C18.224 22.792 16.992 22.328 15.232 21.944L9.80801 20.792C6.73601 20.152 4.44801 19.064 2.94401 17.528C1.47201 15.96 0.736006 13.912 0.736006 11.384C0.736006 9.78399 1.07201 8.32799 1.74401 7.01599C2.41601 5.70399 3.36001 4.56799 4.57601 3.60799C5.79201 2.64799 7.23201 1.91199 8.89601 1.39999C10.592 0.887988 12.448 0.631989 14.464 0.631989C16.256 0.631989 18.016 0.855989 19.744 1.30399C21.472 1.71999 22.992 2.34399 24.304 3.17599C24.944 3.55999 25.376 4.05599 25.6 4.66399C25.856 5.23999 25.936 5.83199 25.84 6.43999C25.776 7.01599 25.536 7.52799 25.12 7.97599C24.736 8.42399 24.24 8.71199 23.632 8.83999C23.024 8.96799 22.288 8.82399 21.424 8.40799C20.368 7.86399 19.248 7.46399 18.064 7.20799C16.88 6.95199 15.664 6.82399 14.416 6.82399C13.072 6.82399 11.92 6.99999 10.96 7.35199C10.032 7.70399 9.31201 8.19999 8.80001 8.83999C8.32001 9.47999 8.08001 10.216 8.08001 11.048C8.08001 11.976 8.41601 12.728 9.08801 13.304C9.76001 13.88 10.928 14.344 12.592 14.696L18.016 15.848C21.152 16.52 23.488 17.608 25.024 19.112C26.56 20.584 27.328 22.536 27.328 24.968C27.328 26.568 27.008 28.024 26.368 29.336C25.728 30.616 24.8 31.72 23.584 32.648C22.368 33.576 20.912 34.296 19.216 34.808C17.52 35.288 15.616 35.528 13.504 35.528Z" fill="black"/>
<path d="M35.902 35.432C34.686 35.432 33.758 35.096 33.118 34.424C32.478 33.752 32.158 32.808 32.158 31.592V4.95199C32.158 3.70399 32.478 2.75999 33.118 2.11999C33.79 1.47999 34.734 1.15999 35.95 1.15999H47.614C51.39 1.15999 54.302 2.07199 56.35 3.89599C58.398 5.71999 59.422 8.26399 59.422 11.528C59.422 13.64 58.958 15.464 58.03 17C57.102 18.536 55.758 19.72 53.998 20.552C52.27 21.384 50.142 21.8 47.614 21.8L47.998 20.984H49.966C51.31 20.984 52.478 21.32 53.47 21.992C54.494 22.632 55.374 23.624 56.11 24.968L59.086 30.488C59.534 31.288 59.742 32.072 59.71 32.84C59.678 33.608 59.39 34.232 58.846 34.712C58.302 35.192 57.502 35.432 56.446 35.432C55.39 35.432 54.526 35.208 53.854 34.76C53.214 34.312 52.638 33.624 52.126 32.696L47.518 24.2C47.038 23.304 46.446 22.696 45.742 22.376C45.07 22.056 44.238 21.896 43.246 21.896H39.598V31.592C39.598 32.808 39.278 33.752 38.638 34.424C38.03 35.096 37.118 35.432 35.902 35.432ZM39.598 16.52H46.27C48.254 16.52 49.742 16.12 50.734 15.32C51.758 14.52 52.27 13.32 52.27 11.72C52.27 10.152 51.758 8.96799 50.734 8.16799C49.742 7.36799 48.254 6.96799 46.27 6.96799H39.598V16.52Z" fill="black"/>
</svg>
